<svg width="306" height="55" viewBox="0 0 306 55" fill="currentColor" xmlns="http://www.w3.org/2000/svg" preserveAspectRatio="none">
<path fill-rule="evenodd" clip-rule="evenodd" d="M0 0H305.439L305.439 0.000124359H298.717V6.72268H305.439L305.439 14.1174H0V0Z" fill="currentColor"/>
<rect x="303.423" y="0.00012207" width="2.01677" height="2.01677" fill="currentColor"/>
<rect x="300.734" y="3.36145" width="4.70579" height="1.34451" fill="currentColor"/>
<rect x="302.078" y="0.00012207" width="4.70579" height="1.34451" transform="rotate(90 302.078 0.00012207)" fill="currentColor"/>
<path fill-rule="evenodd" clip-rule="evenodd" d="M0 14.1174H22.1844V44.3561H18.6827H14.6491H0V14.1174ZM2.0168 24.8736H3.81845e-05V26.8903H1.34436V28.2348H2.01662V26.8903H2.0168V24.8736ZM3.81845e-05 28.2349H2.0168V30.2516H3.81845e-05V28.2349Z" fill="currentColor"/>
<rect width="262.89" height="28.7226" transform="translate(22.1844 14.1176)" fill="currentColor"/>
<path d="M305.242 14.1174H285.075V44.3561H305.242V14.1174Z" fill="currentColor"/>
<path fill-rule="evenodd" clip-rule="evenodd" d="M305.439 42.8401L291.994 54.9406L191.369 54.9406L160.496 54.9407V51.5794H143.69V54.9407L125.3 54.9406H0V43.0654V42.84L305.439 42.84L305.439 42.8401ZM3.81845e-05 54.9406V43.5123L11.4284 54.9406H3.81845e-05ZM205.537 50.9073H203.52V54.2685H205.537V50.9073ZM208.899 50.9071H210.915V54.2684H208.899V50.9071ZM207.554 52.9239H206.882V54.2684H207.554V52.9239Z" fill="currentColor"/>
<path d="M294.011 54.9406L305.439 44.8568L305.439 47.2313L296.677 54.9406L294.011 54.9406Z" fill="currentColor"/>
</svg>